<svg width="122" height="98" viewBox="0 0 122 98" fill="none" xmlns="http://www.w3.org/2000/svg">
<g clip-path="url(#clip0_406_119)">
<path d="M57.2352 18.7646L57.2353 18.7647C57.919 19.4483 57.919 20.5516 57.2353 21.2353L57.2353 21.2353L42.2376 36.2353C41.554 36.9189 40.4461 36.9189 39.7626 36.2353C39.0791 35.5517 39.0791 34.4483 39.7626 33.7646L39.7626 33.7646L52.9914 20.5302L53.5214 19.9999L52.9913 19.4697L39.7626 6.23771C39.7626 6.2377 39.7626 6.23769 39.7626 6.23769C39.0792 5.55408 39.0791 4.44622 39.7623 3.76252C39.7624 3.76249 39.7624 3.76245 39.7624 3.76242C39.7625 3.76237 39.7625 3.76232 39.7626 3.76226C40.4461 3.07945 41.5541 3.07945 42.2378 3.76248C42.2378 3.76251 42.2378 3.76253 42.2379 3.76256L57.2352 18.7646ZM81 33.25C81.9686 33.25 82.75 34.0314 82.75 35C82.75 35.9686 81.9686 36.75 81 36.75H58.5C57.5314 36.75 56.75 35.9686 56.75 35C56.75 34.0314 57.5314 33.25 58.5 33.25H81Z" stroke="#3294F8" stroke-width="1.5"/>
</g>
<path d="M6.5625 69.5391V81.9375C6.5625 82.4141 6.55859 82.8086 6.55078 83.1211C6.54297 83.4258 6.52344 83.7695 6.49219 84.1523C6.46875 84.5273 6.42578 84.8359 6.36328 85.0781C6.30859 85.3125 6.23438 85.5625 6.14062 85.8281C6.04688 86.0938 5.92578 86.3047 5.77734 86.4609C5.63672 86.6172 5.46484 86.7656 5.26172 86.9062C5.05859 87.0391 4.82031 87.1328 4.54688 87.1875C4.27344 87.25 3.96484 87.2812 3.62109 87.2812C2.67578 87.2812 1.74609 87.0742 0.832031 86.6602L1.07812 84.8555C1.79688 85.1289 2.40234 85.2656 2.89453 85.2656C3.40234 85.2656 3.74219 85.1055 3.91406 84.7852C4.09375 84.4648 4.18359 84.0039 4.18359 83.4023V69.5391H6.5625ZM16.8281 87.2812C16.1484 87.2812 15.543 87.2656 15.0117 87.2344C14.4883 87.2031 14.0039 87.125 13.5586 87C13.1133 86.8828 12.7305 86.7734 12.4102 86.6719C12.0977 86.5703 11.8125 86.3789 11.5547 86.0977C11.3047 85.8086 11.0977 85.5625 10.9336 85.3594C10.7695 85.1484 10.6289 84.8047 10.5117 84.3281C10.3945 83.8438 10.3086 83.4336 10.2539 83.0977C10.1992 82.7539 10.1523 82.2266 10.1133 81.5156C10.082 80.8047 10.0625 80.1953 10.0547 79.6875C10.0547 79.1797 10.0547 78.4453 10.0547 77.4844C10.0547 76.3281 10.0859 75.3672 10.1484 74.6016C10.2109 73.8359 10.332 73.125 10.5117 72.4688C10.6992 71.8125 10.9414 71.2969 11.2383 70.9219C11.543 70.5469 11.9531 70.2266 12.4688 69.9609C12.9922 69.6875 13.5977 69.5039 14.2852 69.4102C14.9805 69.3086 15.8281 69.2578 16.8281 69.2578C17.7734 69.2578 18.582 69.3047 19.2539 69.3984C19.9258 69.4922 20.5195 69.6602 21.0352 69.9023C21.5586 70.1367 21.9766 70.4336 22.2891 70.793C22.6094 71.1445 22.8711 71.6094 23.0742 72.1875C23.2773 72.7656 23.4141 73.4141 23.4844 74.1328C23.5625 74.8438 23.6016 75.7109 23.6016 76.7344C23.6016 79.625 23.5586 81.5273 23.4727 82.4414C23.3242 84.0039 22.9648 85.1211 22.3945 85.793C21.793 86.5117 20.7695 86.9648 19.3242 87.1523C18.6367 87.2383 17.8047 87.2812 16.8281 87.2812ZM18.5039 71.1094C18.0586 71.0781 17.5 71.0625 16.8281 71.0625C16.1562 71.0625 15.5977 71.0781 15.1523 71.1094C14.707 71.1406 14.3164 71.207 13.9805 71.3086C13.6523 71.4102 13.3984 71.5234 13.2188 71.6484C13.0391 71.7734 12.8906 71.9688 12.7734 72.2344C12.6641 72.4922 12.5898 72.7578 12.5508 73.0312C12.5195 73.3047 12.4961 73.6758 12.4805 74.1445C12.457 75.5898 12.4453 77.043 12.4453 78.5039C12.4453 80.707 12.5039 82.2148 12.6211 83.0273C12.8086 84.2461 13.1641 84.9492 13.6875 85.1367C14.0781 85.3633 15.125 85.4766 16.8281 85.4766C18.5312 85.4766 19.5781 85.3633 19.9688 85.1367C20.1172 85.082 20.25 84.9922 20.3672 84.8672C20.4922 84.7422 20.5938 84.5742 20.6719 84.3633C20.7578 84.1523 20.832 83.9414 20.8945 83.7305C20.957 83.5117 21.0078 83.2344 21.0469 82.8984C21.0859 82.5625 21.1172 82.2617 21.1406 81.9961C21.1641 81.7227 21.1797 81.3789 21.1875 80.9648C21.1953 80.543 21.1992 80.1953 21.1992 79.9219C21.207 79.6484 21.2109 79.2852 21.2109 78.832C21.2109 77.2539 21.1992 75.6914 21.1758 74.1445C21.1602 73.6758 21.1328 73.3047 21.0938 73.0312C21.0625 72.7578 20.9883 72.4922 20.8711 72.2344C20.7617 71.9688 20.6172 71.7734 20.4375 71.6484C20.2578 71.5234 20 71.4102 19.6641 71.3086C19.3359 71.207 18.9492 71.1406 18.5039 71.1094ZM39.0352 87H36.6211L35.2969 82.5352H28.8398L27.5625 87H25.2773L30.6328 69.5391H33.8086L39.0352 87ZM34.8047 80.8477L33.3281 75.6094L32.1094 71.3203C31.6562 72.9375 31.2578 74.3281 30.9141 75.4922L29.3438 80.8477H34.8047ZM36.2695 65.8945C35.8711 67.3398 34.9844 68.0625 33.6094 68.0625C33.1953 68.0625 32.6367 67.8984 31.9336 67.5703C31.2305 67.2422 30.7148 67.0781 30.3867 67.0781C29.7773 67.0781 29.207 67.3242 28.6758 67.8164L28.3359 67.3125C28.7188 66.0938 29.5352 65.4844 30.7852 65.4844C31.1992 65.4844 31.5859 65.5508 31.9453 65.6836C32.3125 65.8164 32.6406 65.9492 32.9297 66.082C33.2188 66.2148 33.4766 66.2812 33.7031 66.2812C34.3438 66.2812 35.0664 65.957 35.8711 65.3086L36.2695 65.8945ZM47.9531 87.2812C47.2734 87.2812 46.668 87.2656 46.1367 87.2344C45.6133 87.2031 45.1289 87.125 44.6836 87C44.2383 86.8828 43.8555 86.7734 43.5352 86.6719C43.2227 86.5703 42.9375 86.3789 42.6797 86.0977C42.4297 85.8086 42.2227 85.5625 42.0586 85.3594C41.8945 85.1484 41.7539 84.8047 41.6367 84.3281C41.5195 83.8438 41.4336 83.4336 41.3789 83.0977C41.3242 82.7539 41.2773 82.2266 41.2383 81.5156C41.207 80.8047 41.1875 80.1953 41.1797 79.6875C41.1797 79.1797 41.1797 78.4453 41.1797 77.4844C41.1797 76.3281 41.2109 75.3672 41.2734 74.6016C41.3359 73.8359 41.457 73.125 41.6367 72.4688C41.8242 71.8125 42.0664 71.2969 42.3633 70.9219C42.668 70.5469 43.0781 70.2266 43.5938 69.9609C44.1172 69.6875 44.7227 69.5039 45.4102 69.4102C46.1055 69.3086 46.9531 69.2578 47.9531 69.2578C48.8984 69.2578 49.707 69.3047 50.3789 69.3984C51.0508 69.4922 51.6445 69.6602 52.1602 69.9023C52.6836 70.1367 53.1016 70.4336 53.4141 70.793C53.7344 71.1445 53.9961 71.6094 54.1992 72.1875C54.4023 72.7656 54.5391 73.4141 54.6094 74.1328C54.6875 74.8438 54.7266 75.7109 54.7266 76.7344C54.7266 79.625 54.6836 81.5273 54.5977 82.4414C54.4492 84.0039 54.0898 85.1211 53.5195 85.793C52.918 86.5117 51.8945 86.9648 50.4492 87.1523C49.7617 87.2383 48.9297 87.2812 47.9531 87.2812ZM49.6289 71.1094C49.1836 71.0781 48.625 71.0625 47.9531 71.0625C47.2812 71.0625 46.7227 71.0781 46.2773 71.1094C45.832 71.1406 45.4414 71.207 45.1055 71.3086C44.7773 71.4102 44.5234 71.5234 44.3438 71.6484C44.1641 71.7734 44.0156 71.9688 43.8984 72.2344C43.7891 72.4922 43.7148 72.7578 43.6758 73.0312C43.6445 73.3047 43.6211 73.6758 43.6055 74.1445C43.582 75.5898 43.5703 77.043 43.5703 78.5039C43.5703 80.707 43.6289 82.2148 43.7461 83.0273C43.9336 84.2461 44.2891 84.9492 44.8125 85.1367C45.2031 85.3633 46.25 85.4766 47.9531 85.4766C49.6562 85.4766 50.7031 85.3633 51.0938 85.1367C51.2422 85.082 51.375 84.9922 51.4922 84.8672C51.6172 84.7422 51.7188 84.5742 51.7969 84.3633C51.8828 84.1523 51.957 83.9414 52.0195 83.7305C52.082 83.5117 52.1328 83.2344 52.1719 82.8984C52.2109 82.5625 52.2422 82.2617 52.2656 81.9961C52.2891 81.7227 52.3047 81.3789 52.3125 80.9648C52.3203 80.543 52.3242 80.1953 52.3242 79.9219C52.332 79.6484 52.3359 79.2852 52.3359 78.832C52.3359 77.2539 52.3242 75.6914 52.3008 74.1445C52.2852 73.6758 52.2578 73.3047 52.2188 73.0312C52.1875 72.7578 52.1133 72.4922 51.9961 72.2344C51.8867 71.9688 51.7422 71.7734 51.5625 71.6484C51.3828 71.5234 51.125 71.4102 50.7891 71.3086C50.4609 71.207 50.0742 71.1406 49.6289 71.1094ZM57.9258 87H67.7344V88.4883H57.9258V87ZM84.293 76.7344C84.293 77.8047 84.2852 78.6875 84.2695 79.3828C84.2617 80.0703 84.2266 80.7773 84.1641 81.5039C84.1016 82.2227 84.0352 82.793 83.9648 83.2148C83.8945 83.6367 83.7617 84.0703 83.5664 84.5156C83.3789 84.9531 83.1914 85.2812 83.0039 85.5C82.8242 85.7109 82.5469 85.9297 82.1719 86.1562C81.7969 86.3828 81.4297 86.5352 81.0703 86.6133C80.7109 86.6914 80.2227 86.7695 79.6055 86.8477C78.9961 86.9258 78.3945 86.9727 77.8008 86.9883C77.2148 86.9961 76.4688 87 75.5625 87H71.3203V69.5391H77.3672C78.3516 69.5391 79.1836 69.582 79.8633 69.668C80.543 69.7461 81.1484 69.8984 81.6797 70.125C82.2188 70.3438 82.6484 70.6211 82.9688 70.957C83.2891 71.293 83.5508 71.7422 83.7539 72.3047C83.9648 72.8594 84.1055 73.4844 84.1758 74.1797C84.2539 74.875 84.293 75.7266 84.293 76.7344ZM81.9375 76.7695C81.9375 76.0508 81.9336 75.5352 81.9258 75.2227C81.9258 74.9023 81.8984 74.5039 81.8438 74.0273C81.7969 73.5508 81.7266 73.2266 81.6328 73.0547C81.5469 72.875 81.4062 72.6484 81.2109 72.375C81.0156 72.1016 80.7852 71.9297 80.5195 71.8594C80.2617 71.7812 79.918 71.6875 79.4883 71.5781C79.0664 71.4609 78.5938 71.3945 78.0703 71.3789C77.5469 71.3555 76.9102 71.3438 76.1602 71.3438H73.6992V85.207H76.5117C77.1836 85.207 77.707 85.2031 78.082 85.1953C78.457 85.1797 78.8633 85.1445 79.3008 85.0898C79.7383 85.0352 80.0586 84.9648 80.2617 84.8789C80.4727 84.7852 80.6992 84.6445 80.9414 84.457C81.1836 84.2617 81.3516 84.043 81.4453 83.8008C81.5391 83.5508 81.6328 83.2266 81.7266 82.8281C81.8203 82.4219 81.8789 81.9766 81.9023 81.4922C81.9258 81.0078 81.9375 80.4219 81.9375 79.7344V76.7695ZM90.2461 87H87.8672V69.5391H90.2461V87ZM106.582 87H104.168L102.844 82.5352H96.3867L95.1094 87H92.8242L98.1797 69.5391H101.355L106.582 87ZM102.352 80.8477L100.875 75.6094L99.6562 71.3203C99.2031 72.9375 98.8047 74.3281 98.4609 75.4922L96.8906 80.8477H102.352ZM120.539 81.8789C120.539 82.3867 120.523 82.8477 120.492 83.2617C120.461 83.668 120.402 84.043 120.316 84.3867C120.238 84.7227 120.152 85.0195 120.059 85.2773C119.965 85.5352 119.832 85.7656 119.66 85.9688C119.488 86.1641 119.316 86.332 119.145 86.4727C118.98 86.6133 118.762 86.7344 118.488 86.8359C118.223 86.9297 117.965 87.0039 117.715 87.0586C117.465 87.1211 117.152 87.168 116.777 87.1992C116.402 87.2305 116.043 87.25 115.699 87.2578C115.363 87.2734 114.949 87.2812 114.457 87.2812C113.527 87.2812 112.746 87.2539 112.113 87.1992C111.488 87.1445 110.953 87.0273 110.508 86.8477C110.07 86.668 109.73 86.4844 109.488 86.2969C109.246 86.1016 109.055 85.7969 108.914 85.3828C108.773 84.9609 108.68 84.5586 108.633 84.1758C108.594 83.793 108.559 83.25 108.527 82.5469L110.695 82.1953C110.719 82.3672 110.742 82.6094 110.766 82.9219C110.812 83.4062 110.855 83.75 110.895 83.9531C110.941 84.1484 111.027 84.3672 111.152 84.6094C111.277 84.8516 111.473 85.0117 111.738 85.0898C112.004 85.1602 112.352 85.2227 112.781 85.2773C113.211 85.332 113.785 85.3594 114.504 85.3594C115.098 85.3594 115.586 85.3438 115.969 85.3125C116.352 85.2812 116.688 85.2188 116.977 85.125C117.266 85.0234 117.484 84.9102 117.633 84.7852C117.781 84.6602 117.898 84.4688 117.984 84.2109C118.078 83.9453 118.137 83.6719 118.16 83.3906C118.184 83.1094 118.191 82.7344 118.184 82.2656C118.176 81.2344 118.117 80.5234 118.008 80.1328C117.906 79.7344 117.684 79.5 117.34 79.4297L111.504 78.4102C110.488 78.2383 109.781 77.8516 109.383 77.25C108.984 76.6484 108.773 75.6758 108.75 74.332C108.75 73.6133 108.785 73 108.855 72.4922C108.934 71.9766 109.062 71.5273 109.242 71.1445C109.43 70.7539 109.656 70.4414 109.922 70.207C110.195 69.9727 110.551 69.7852 110.988 69.6445C111.434 69.4961 111.918 69.3984 112.441 69.3516C112.973 69.2969 113.621 69.2695 114.387 69.2695C115.012 69.2695 115.547 69.2852 115.992 69.3164C116.445 69.3398 116.883 69.3867 117.305 69.457C117.734 69.5273 118.09 69.625 118.371 69.75C118.652 69.875 118.91 70.0391 119.145 70.2422C119.387 70.4375 119.574 70.6797 119.707 70.9688C119.84 71.25 119.941 71.582 120.012 71.9648C120.082 72.3477 120.117 72.7891 120.117 73.2891L118.031 73.7695C117.953 72.9102 117.902 72.4219 117.879 72.3047C117.785 71.9062 117.562 71.6367 117.211 71.4961C116.82 71.332 116.004 71.25 114.762 71.25C114.082 71.25 113.52 71.2695 113.074 71.3086C112.637 71.3477 112.277 71.4062 111.996 71.4844C111.715 71.5547 111.504 71.6641 111.363 71.8125C111.23 71.9609 111.141 72.1211 111.094 72.293C111.047 72.457 111.023 72.6758 111.023 72.9492V74.9766C111.023 75.7109 111.344 76.1328 111.984 76.2422L116.18 76.957C116.57 77.0195 116.883 77.0742 117.117 77.1211C117.352 77.168 117.621 77.2305 117.926 77.3086C118.23 77.3867 118.469 77.4688 118.641 77.5547C118.812 77.6406 119.004 77.75 119.215 77.8828C119.426 78.0156 119.59 78.1641 119.707 78.3281C119.824 78.4922 119.941 78.6875 120.059 78.9141C120.184 79.1406 120.273 79.3984 120.328 79.6875C120.391 79.9688 120.441 80.293 120.48 80.6602C120.52 81.0195 120.539 81.4258 120.539 81.8789Z" fill="#3294F8"/>
<defs>
<clipPath id="clip0_406_119">
<rect width="45" height="40" fill="white" transform="translate(38.5)"/>
</clipPath>
</defs>
</svg>
